solid OpenSCAD_Model
  facet normal -1 0 0
    outer loop
      vertex 0 0 0
      vertex 0 2300 600
      vertex 0 2300 0
    endloop
  endfacet
  facet normal -1 -0 0
    outer loop
      vertex 0 2300 600
      vertex 0 0 0
      vertex 0 0 600
    endloop
  endfacet
  facet normal -0 0 1
    outer loop
      vertex 200 1200 100
      vertex 700 900 100
      vertex 900 1200 100
    endloop
  endfacet
  facet normal 0 0 1
    outer loop
      vertex 700 900 100
      vertex 200 1200 100
      vertex 200 900 100
    endloop
  endfacet
  facet normal 0 0 1
    outer loop
      vertex 1600 2200 100
      vertex 1500 2100 100
      vertex 1600 100 100
    endloop
  endfacet
  facet normal 0 0 1
    outer loop
      vertex 1600 2200 100
      vertex 1000 2100 100
      vertex 1500 2100 100
    endloop
  endfacet
  facet normal 0 0 1
    outer loop
      vertex 900 1200 100
      vertex 1000 2100 100
      vertex 900 2100 100
    endloop
  endfacet
  facet normal 0 0 1
    outer loop
      vertex 1600 2200 100
      vertex 900 2100 100
      vertex 1000 2100 100
    endloop
  endfacet
  facet normal -0 0 1
    outer loop
      vertex 100 2200 100
      vertex 900 2100 100
      vertex 1600 2200 100
    endloop
  endfacet
  facet normal 0 0 1
    outer loop
      vertex 100 2200 100
      vertex 200 1200 100
      vertex 200 2100 100
    endloop
  endfacet
  facet normal 0 0 1
    outer loop
      vertex 100 100 100
      vertex 200 1200 100
      vertex 100 2200 100
    endloop
  endfacet
  facet normal 0 0 1
    outer loop
      vertex 200 1200 100
      vertex 100 100 100
      vertex 200 900 100
    endloop
  endfacet
  facet normal 0 0 1
    outer loop
      vertex 900 2100 100
      vertex 100 2200 100
      vertex 200 2100 100
    endloop
  endfacet
  facet normal -0 0 1
    outer loop
      vertex 1500 200 100
      vertex 1600 100 100
      vertex 1500 2100 100
    endloop
  endfacet
  facet normal -0 0 1
    outer loop
      vertex 1000 200 100
      vertex 1600 100 100
      vertex 1500 200 100
    endloop
  endfacet
  facet normal 0 0 1
    outer loop
      vertex 1000 2100 100
      vertex 900 1200 100
      vertex 1000 200 100
    endloop
  endfacet
  facet normal -0 0 1
    outer loop
      vertex 700 900 100
      vertex 1000 200 100
      vertex 900 1200 100
    endloop
  endfacet
  facet normal 0 0 1
    outer loop
      vertex 700 200 100
      vertex 1000 200 100
      vertex 700 900 100
    endloop
  endfacet
  facet normal -0 0 1
    outer loop
      vertex 700 200 100
      vertex 1600 100 100
      vertex 1000 200 100
    endloop
  endfacet
  facet normal 0 0 1
    outer loop
      vertex 100 100 100
      vertex 700 200 100
      vertex 200 200 100
    endloop
  endfacet
  facet normal 0 0 1
    outer loop
      vertex 700 200 100
      vertex 100 100 100
      vertex 1600 100 100
    endloop
  endfacet
  facet normal 0 0 1
    outer loop
      vertex 200 900 100
      vertex 100 100 100
      vertex 200 200 100
    endloop
  endfacet
  facet normal 1 -0 0
    outer loop
      vertex 1700 0 600
      vertex 1700 2300 0
      vertex 1700 2300 600
    endloop
  endfacet
  facet normal 1 0 0
    outer loop
      vertex 1700 2300 0
      vertex 1700 0 600
      vertex 1700 0 0
    endloop
  endfacet
  facet normal 0 1 -0
    outer loop
      vertex 1700 2300 0
      vertex 0 2300 600
      vertex 1700 2300 600
    endloop
  endfacet
  facet normal 0 1 0
    outer loop
      vertex 0 2300 600
      vertex 1700 2300 0
      vertex 0 2300 0
    endloop
  endfacet
  facet normal 0 0 -1
    outer loop
      vertex 0 0 0
      vertex 1700 2300 0
      vertex 1700 0 0
    endloop
  endfacet
  facet normal -0 0 -1
    outer loop
      vertex 1700 2300 0
      vertex 0 0 0
      vertex 0 2300 0
    endloop
  endfacet
  facet normal 0 -1 0
    outer loop
      vertex 0 0 600
      vertex 844.251 0 554.699
      vertex 1700 0 600
    endloop
  endfacet
  facet normal 0 -1 0
    outer loop
      vertex 0 0 600
      vertex 833.004 0 552.308
      vertex 844.251 0 554.699
    endloop
  endfacet
  facet normal 0 -1 0
    outer loop
      vertex 0 0 600
      vertex 822.5 0 547.631
      vertex 833.004 0 552.308
    endloop
  endfacet
  facet normal 0 -1 0
    outer loop
      vertex 0 0 600
      vertex 813.198 0 540.873
      vertex 822.5 0 547.631
    endloop
  endfacet
  facet normal 0 -1 0
    outer loop
      vertex 0 0 600
      vertex 805.504 0 532.328
      vertex 813.198 0 540.873
    endloop
  endfacet
  facet normal 0 -1 0
    outer loop
      vertex 0 0 600
      vertex 799.755 0 522.371
      vertex 805.504 0 532.328
    endloop
  endfacet
  facet normal 0 -1 0
    outer loop
      vertex 0 0 600
      vertex 796.202 0 511.435
      vertex 799.755 0 522.371
    endloop
  endfacet
  facet normal 0 -1 0
    outer loop
      vertex 0 0 600
      vertex 795 0 500
      vertex 796.202 0 511.435
    endloop
  endfacet
  facet normal 0 -1 0
    outer loop
      vertex 0 0 600
      vertex 796.202 0 488.565
      vertex 795 0 500
    endloop
  endfacet
  facet normal 0 -1 0
    outer loop
      vertex 796.202 0 361.435
      vertex 796.202 0 488.565
      vertex 0 0 600
    endloop
  endfacet
  facet normal 0 -1 0
    outer loop
      vertex 796.202 0 488.565
      vertex 796.202 0 361.435
      vertex 799.755 0 477.629
    endloop
  endfacet
  facet normal -0 -1 0
    outer loop
      vertex 799.755 0 372.371
      vertex 799.755 0 477.629
      vertex 796.202 0 361.435
    endloop
  endfacet
  facet normal 0 -1 0
    outer loop
      vertex 799.755 0 477.629
      vertex 799.755 0 372.371
      vertex 805.504 0 467.672
    endloop
  endfacet
  facet normal 0 -1 0
    outer loop
      vertex 805.504 0 467.672
      vertex 805.504 0 382.328
      vertex 813.198 0 459.127
    endloop
  endfacet
  facet normal -0 -1 0
    outer loop
      vertex 813.198 0 390.873
      vertex 813.198 0 459.127
      vertex 805.504 0 382.328
    endloop
  endfacet
  facet normal 0 -1 0
    outer loop
      vertex 844.251 0 445.301
      vertex 844.251 0 404.699
      vertex 855.749 0 445.301
    endloop
  endfacet
  facet normal -0 -1 0
    outer loop
      vertex 822.5 0 397.631
      vertex 822.5 0 452.369
      vertex 813.198 0 390.873
    endloop
  endfacet
  facet normal 0 -1 -0
    outer loop
      vertex 844.251 0 445.301
      vertex 833.004 0 402.308
      vertex 844.251 0 404.699
    endloop
  endfacet
  facet normal 0 -1 0
    outer loop
      vertex 833.004 0 447.692
      vertex 833.004 0 402.308
      vertex 844.251 0 445.301
    endloop
  endfacet
  facet normal -0 -1 0
    outer loop
      vertex 833.004 0 402.308
      vertex 833.004 0 447.692
      vertex 822.5 0 397.631
    endloop
  endfacet
  facet normal 0 -1 0
    outer loop
      vertex 822.5 0 452.369
      vertex 822.5 0 397.631
      vertex 833.004 0 447.692
    endloop
  endfacet
  facet normal 0 -1 0
    outer loop
      vertex 813.198 0 459.127
      vertex 813.198 0 390.873
      vertex 822.5 0 452.369
    endloop
  endfacet
  facet normal -0 -1 0
    outer loop
      vertex 805.504 0 382.328
      vertex 805.504 0 467.672
      vertex 799.755 0 372.371
    endloop
  endfacet
  facet normal 0 -1 0
    outer loop
      vertex 0 0 600
      vertex 795 0 350
      vertex 796.202 0 361.435
    endloop
  endfacet
  facet normal 0 -1 0
    outer loop
      vertex 0 0 600
      vertex 796.202 0 338.565
      vertex 795 0 350
    endloop
  endfacet
  facet normal 0 -1 0
    outer loop
      vertex 0 0 0
      vertex 796.202 0 338.565
      vertex 0 0 600
    endloop
  endfacet
  facet normal -0 -1 0
    outer loop
      vertex 796.202 0 211.435
      vertex 796.202 0 338.565
      vertex 0 0 0
    endloop
  endfacet
  facet normal -0 -1 0
    outer loop
      vertex 799.755 0 222.371
      vertex 799.755 0 327.629
      vertex 796.202 0 211.435
    endloop
  endfacet
  facet normal 0 -1 0
    outer loop
      vertex 799.755 0 327.629
      vertex 799.755 0 222.371
      vertex 805.504 0 317.672
    endloop
  endfacet
  facet normal 0 -1 0
    outer loop
      vertex 805.504 0 317.672
      vertex 805.504 0 232.328
      vertex 813.198 0 309.127
    endloop
  endfacet
  facet normal 0 -1 0
    outer loop
      vertex 844.251 0 295.301
      vertex 844.251 0 254.699
      vertex 855.749 0 295.301
    endloop
  endfacet
  facet normal 0 -1 0
    outer loop
      vertex 833.004 0 297.692
      vertex 844.251 0 254.699
      vertex 844.251 0 295.301
    endloop
  endfacet
  facet normal -0 -1 0
    outer loop
      vertex 813.198 0 240.873
      vertex 813.198 0 309.127
      vertex 805.504 0 232.328
    endloop
  endfacet
  facet normal 0 -1 0
    outer loop
      vertex 833.004 0 297.692
      vertex 833.004 0 252.308
      vertex 844.251 0 254.699
    endloop
  endfacet
  facet normal 0 -1 -0
    outer loop
      vertex 833.004 0 297.692
      vertex 822.5 0 247.631
      vertex 833.004 0 252.308
    endloop
  endfacet
  facet normal 0 -1 0
    outer loop
      vertex 822.5 0 302.369
      vertex 822.5 0 247.631
      vertex 833.004 0 297.692
    endloop
  endfacet
  facet normal -0 -1 0
    outer loop
      vertex 822.5 0 247.631
      vertex 822.5 0 302.369
      vertex 813.198 0 240.873
    endloop
  endfacet
  facet normal 0 -1 0
    outer loop
      vertex 813.198 0 309.127
      vertex 813.198 0 240.873
      vertex 822.5 0 302.369
    endloop
  endfacet
  facet normal -0 -1 0
    outer loop
      vertex 805.504 0 232.328
      vertex 805.504 0 317.672
      vertex 799.755 0 222.371
    endloop
  endfacet
  facet normal 0 -1 0
    outer loop
      vertex 796.202 0 338.565
      vertex 796.202 0 211.435
      vertex 799.755 0 327.629
    endloop
  endfacet
  facet normal 0 -1 0
    outer loop
      vertex 796.202 0 211.435
      vertex 0 0 0
      vertex 795 0 200
    endloop
  endfacet
  facet normal 0 -1 -0
    outer loop
      vertex 795 0 200
      vertex 0 0 0
      vertex 796.202 0 188.565
    endloop
  endfacet
  facet normal 0 -1 -0
    outer loop
      vertex 796.202 0 188.565
      vertex 0 0 0
      vertex 799.755 0 177.629
    endloop
  endfacet
  facet normal 0 -1 -0
    outer loop
      vertex 799.755 0 177.629
      vertex 0 0 0
      vertex 805.504 0 167.672
    endloop
  endfacet
  facet normal 0 -1 -0
    outer loop
      vertex 805.504 0 167.672
      vertex 0 0 0
      vertex 813.198 0 159.127
    endloop
  endfacet
  facet normal 0 -1 -0
    outer loop
      vertex 844.251 0 145.301
      vertex 0 0 0
      vertex 855.749 0 145.301
    endloop
  endfacet
  facet normal 0 -1 -0
    outer loop
      vertex 833.004 0 147.692
      vertex 0 0 0
      vertex 844.251 0 145.301
    endloop
  endfacet
  facet normal 0 -1 -0
    outer loop
      vertex 822.5 0 152.369
      vertex 0 0 0
      vertex 833.004 0 147.692
    endloop
  endfacet
  facet normal 0 -1 -0
    outer loop
      vertex 813.198 0 159.127
      vertex 0 0 0
      vertex 822.5 0 152.369
    endloop
  endfacet
  facet normal 0 -1 0
    outer loop
      vertex 855.749 0 554.699
      vertex 1700 0 600
      vertex 844.251 0 554.699
    endloop
  endfacet
  facet normal 0 -1 0
    outer loop
      vertex 866.996 0 552.308
      vertex 1700 0 600
      vertex 855.749 0 554.699
    endloop
  endfacet
  facet normal 0 -1 0
    outer loop
      vertex 877.5 0 547.631
      vertex 1700 0 600
      vertex 866.996 0 552.308
    endloop
  endfacet
  facet normal 0 -1 0
    outer loop
      vertex 886.802 0 540.873
      vertex 1700 0 600
      vertex 877.5 0 547.631
    endloop
  endfacet
  facet normal 0 -1 0
    outer loop
      vertex 894.496 0 532.328
      vertex 1700 0 600
      vertex 886.802 0 540.873
    endloop
  endfacet
  facet normal 0 -1 0
    outer loop
      vertex 900.245 0 522.371
      vertex 1700 0 600
      vertex 894.496 0 532.328
    endloop
  endfacet
  facet normal 0 -1 0
    outer loop
      vertex 903.798 0 511.435
      vertex 1700 0 600
      vertex 900.245 0 522.371
    endloop
  endfacet
  facet normal 0 -1 0
    outer loop
      vertex 905 0 500
      vertex 1700 0 600
      vertex 903.798 0 511.435
    endloop
  endfacet
  facet normal 0 -1 0
    outer loop
      vertex 903.798 0 488.565
      vertex 1700 0 600
      vertex 905 0 500
    endloop
  endfacet
  facet normal 0 -1 0
    outer loop
      vertex 903.798 0 361.435
      vertex 903.798 0 488.565
      vertex 900.245 0 477.629
    endloop
  endfacet
  facet normal 0 -1 0
    outer loop
      vertex 900.245 0 372.371
      vertex 900.245 0 477.629
      vertex 894.496 0 467.672
    endloop
  endfacet
  facet normal 0 -1 0
    outer loop
      vertex 894.496 0 382.328
      vertex 894.496 0 467.672
      vertex 886.802 0 459.127
    endloop
  endfacet
  facet normal 0 -1 0
    outer loop
      vertex 886.802 0 390.873
      vertex 886.802 0 459.127
      vertex 877.5 0 452.369
    endloop
  endfacet
  facet normal 0 -1 0
    outer loop
      vertex 877.5 0 397.631
      vertex 877.5 0 452.369
      vertex 866.996 0 447.692
    endloop
  endfacet
  facet normal 0 -1 0
    outer loop
      vertex 866.996 0 402.308
      vertex 866.996 0 447.692
      vertex 855.749 0 445.301
    endloop
  endfacet
  facet normal 0 -1 0
    outer loop
      vertex 855.749 0 404.699
      vertex 855.749 0 445.301
      vertex 844.251 0 404.699
    endloop
  endfacet
  facet normal 0 -1 0
    outer loop
      vertex 866.996 0 402.308
      vertex 855.749 0 445.301
      vertex 855.749 0 404.699
    endloop
  endfacet
  facet normal 0 -1 0
    outer loop
      vertex 866.996 0 447.692
      vertex 866.996 0 402.308
      vertex 877.5 0 397.631
    endloop
  endfacet
  facet normal 0 -1 0
    outer loop
      vertex 877.5 0 452.369
      vertex 877.5 0 397.631
      vertex 886.802 0 390.873
    endloop
  endfacet
  facet normal 0 -1 0
    outer loop
      vertex 886.802 0 459.127
      vertex 886.802 0 390.873
      vertex 894.496 0 382.328
    endloop
  endfacet
  facet normal 0 -1 0
    outer loop
      vertex 894.496 0 467.672
      vertex 894.496 0 382.328
      vertex 900.245 0 372.371
    endloop
  endfacet
  facet normal 0 -1 0
    outer loop
      vertex 900.245 0 477.629
      vertex 900.245 0 372.371
      vertex 903.798 0 361.435
    endloop
  endfacet
  facet normal 0 -1 0
    outer loop
      vertex 903.798 0 488.565
      vertex 903.798 0 361.435
      vertex 1700 0 600
    endloop
  endfacet
  facet normal 0 -1 0
    outer loop
      vertex 905 0 350
      vertex 1700 0 600
      vertex 903.798 0 361.435
    endloop
  endfacet
  facet normal 0 -1 0
    outer loop
      vertex 903.798 0 338.565
      vertex 1700 0 600
      vertex 905 0 350
    endloop
  endfacet
  facet normal 0 -1 0
    outer loop
      vertex 903.798 0 211.435
      vertex 903.798 0 338.565
      vertex 900.245 0 327.629
    endloop
  endfacet
  facet normal 0 -1 0
    outer loop
      vertex 900.245 0 222.371
      vertex 900.245 0 327.629
      vertex 894.496 0 317.672
    endloop
  endfacet
  facet normal 0 -1 0
    outer loop
      vertex 894.496 0 232.328
      vertex 894.496 0 317.672
      vertex 886.802 0 309.127
    endloop
  endfacet
  facet normal 0 -1 0
    outer loop
      vertex 886.802 0 240.873
      vertex 886.802 0 309.127
      vertex 877.5 0 302.369
    endloop
  endfacet
  facet normal 0 -1 0
    outer loop
      vertex 877.5 0 247.631
      vertex 877.5 0 302.369
      vertex 866.996 0 297.692
    endloop
  endfacet
  facet normal 0 -1 0
    outer loop
      vertex 855.749 0 254.699
      vertex 855.749 0 295.301
      vertex 844.251 0 254.699
    endloop
  endfacet
  facet normal 0 -1 0
    outer loop
      vertex 855.749 0 295.301
      vertex 855.749 0 254.699
      vertex 866.996 0 297.692
    endloop
  endfacet
  facet normal 0 -1 0
    outer loop
      vertex 866.996 0 252.308
      vertex 866.996 0 297.692
      vertex 855.749 0 254.699
    endloop
  endfacet
  facet normal 0 -1 0
    outer loop
      vertex 877.5 0 247.631
      vertex 866.996 0 297.692
      vertex 866.996 0 252.308
    endloop
  endfacet
  facet normal 0 -1 0
    outer loop
      vertex 877.5 0 302.369
      vertex 877.5 0 247.631
      vertex 886.802 0 240.873
    endloop
  endfacet
  facet normal 0 -1 0
    outer loop
      vertex 886.802 0 309.127
      vertex 886.802 0 240.873
      vertex 894.496 0 232.328
    endloop
  endfacet
  facet normal 0 -1 0
    outer loop
      vertex 894.496 0 317.672
      vertex 894.496 0 232.328
      vertex 900.245 0 222.371
    endloop
  endfacet
  facet normal 0 -1 0
    outer loop
      vertex 900.245 0 327.629
      vertex 900.245 0 222.371
      vertex 903.798 0 211.435
    endloop
  endfacet
  facet normal 0 -1 0
    outer loop
      vertex 903.798 0 338.565
      vertex 903.798 0 211.435
      vertex 1700 0 0
    endloop
  endfacet
  facet normal 0 -1 0
    outer loop
      vertex 1700 0 0
      vertex 903.798 0 211.435
      vertex 905 0 200
    endloop
  endfacet
  facet normal 0 -1 0
    outer loop
      vertex 1700 0 0
      vertex 905 0 200
      vertex 903.798 0 188.565
    endloop
  endfacet
  facet normal 0 -1 0
    outer loop
      vertex 1700 0 0
      vertex 903.798 0 188.565
      vertex 900.245 0 177.629
    endloop
  endfacet
  facet normal 0 -1 0
    outer loop
      vertex 1700 0 0
      vertex 900.245 0 177.629
      vertex 894.496 0 167.672
    endloop
  endfacet
  facet normal 0 -1 0
    outer loop
      vertex 1700 0 0
      vertex 894.496 0 167.672
      vertex 886.802 0 159.127
    endloop
  endfacet
  facet normal 0 -1 0
    outer loop
      vertex 1700 0 0
      vertex 886.802 0 159.127
      vertex 877.5 0 152.369
    endloop
  endfacet
  facet normal 0 -1 0
    outer loop
      vertex 903.798 0 338.565
      vertex 1700 0 0
      vertex 1700 0 600
    endloop
  endfacet
  facet normal 0 -1 0
    outer loop
      vertex 866.996 0 147.692
      vertex 1700 0 0
      vertex 877.5 0 152.369
    endloop
  endfacet
  facet normal 0 -1 0
    outer loop
      vertex 855.749 0 145.301
      vertex 1700 0 0
      vertex 866.996 0 147.692
    endloop
  endfacet
  facet normal 0 -1 0
    outer loop
      vertex 1700 0 0
      vertex 855.749 0 145.301
      vertex 0 0 0
    endloop
  endfacet
  facet normal 1 -0 0
    outer loop
      vertex 200 200 100
      vertex 200 900 50
      vertex 200 900 100
    endloop
  endfacet
  facet normal 1 0 0
    outer loop
      vertex 200 900 50
      vertex 200 200 100
      vertex 200 200 50
    endloop
  endfacet
  facet normal -1 0 0
    outer loop
      vertex 700 200 50
      vertex 700 900 100
      vertex 700 900 50
    endloop
  endfacet
  facet normal -1 -0 0
    outer loop
      vertex 700 900 100
      vertex 700 200 50
      vertex 700 200 100
    endloop
  endfacet
  facet normal 0 -1 0
    outer loop
      vertex 200 900 50
      vertex 700 900 100
      vertex 200 900 100
    endloop
  endfacet
  facet normal 0 -1 -0
    outer loop
      vertex 700 900 100
      vertex 200 900 50
      vertex 700 900 50
    endloop
  endfacet
  facet normal -0 0 1
    outer loop
      vertex 200 900 50
      vertex 700 200 50
      vertex 700 900 50
    endloop
  endfacet
  facet normal 0 0 1
    outer loop
      vertex 700 200 50
      vertex 200 900 50
      vertex 200 200 50
    endloop
  endfacet
  facet normal 0 1 -0
    outer loop
      vertex 700 200 50
      vertex 200 200 100
      vertex 700 200 100
    endloop
  endfacet
  facet normal 0 1 0
    outer loop
      vertex 200 200 100
      vertex 700 200 50
      vertex 200 200 50
    endloop
  endfacet
  facet normal 1 -0 0
    outer loop
      vertex 1000 200 100
      vertex 1000 2100 50
      vertex 1000 2100 100
    endloop
  endfacet
  facet normal 1 0 0
    outer loop
      vertex 1000 2100 50
      vertex 1000 200 100
      vertex 1000 200 50
    endloop
  endfacet
  facet normal -1 0 0
    outer loop
      vertex 1500 200 50
      vertex 1500 2100 100
      vertex 1500 2100 50
    endloop
  endfacet
  facet normal -1 -0 0
    outer loop
      vertex 1500 2100 100
      vertex 1500 200 50
      vertex 1500 200 100
    endloop
  endfacet
  facet normal -0 0 1
    outer loop
      vertex 1000 2100 50
      vertex 1500 200 50
      vertex 1500 2100 50
    endloop
  endfacet
  facet normal 0 0 1
    outer loop
      vertex 1500 200 50
      vertex 1000 2100 50
      vertex 1000 200 50
    endloop
  endfacet
  facet normal 0 1 -0
    outer loop
      vertex 1500 200 50
      vertex 1000 200 100
      vertex 1500 200 100
    endloop
  endfacet
  facet normal 0 1 0
    outer loop
      vertex 1000 200 100
      vertex 1500 200 50
      vertex 1000 200 50
    endloop
  endfacet
  facet normal 0 -1 0
    outer loop
      vertex 1000 2100 50
      vertex 1500 2100 100
      vertex 1000 2100 100
    endloop
  endfacet
  facet normal 0 -1 -0
    outer loop
      vertex 1500 2100 100
      vertex 1000 2100 50
      vertex 1500 2100 50
    endloop
  endfacet
  facet normal 1 -0 0
    outer loop
      vertex 200 1200 100
      vertex 200 2100 50
      vertex 200 2100 100
    endloop
  endfacet
  facet normal 1 0 0
    outer loop
      vertex 200 2100 50
      vertex 200 1200 100
      vertex 200 1200 50
    endloop
  endfacet
  facet normal -1 0 0
    outer loop
      vertex 900 1200 50
      vertex 900 2100 100
      vertex 900 2100 50
    endloop
  endfacet
  facet normal -1 -0 0
    outer loop
      vertex 900 2100 100
      vertex 900 1200 50
      vertex 900 1200 100
    endloop
  endfacet
  facet normal -0 0 1
    outer loop
      vertex 200 2100 50
      vertex 900 1200 50
      vertex 900 2100 50
    endloop
  endfacet
  facet normal 0 0 1
    outer loop
      vertex 900 1200 50
      vertex 200 2100 50
      vertex 200 1200 50
    endloop
  endfacet
  facet normal 0 1 -0
    outer loop
      vertex 900 1200 50
      vertex 200 1200 100
      vertex 900 1200 100
    endloop
  endfacet
  facet normal 0 1 0
    outer loop
      vertex 200 1200 100
      vertex 900 1200 50
      vertex 200 1200 50
    endloop
  endfacet
  facet normal 0 -1 0
    outer loop
      vertex 200 2100 50
      vertex 900 2100 100
      vertex 200 2100 100
    endloop
  endfacet
  facet normal 0 -1 -0
    outer loop
      vertex 900 2100 100
      vertex 200 2100 50
      vertex 900 2100 50
    endloop
  endfacet
  facet normal 0 0 1
    outer loop
      vertex 1700 2300 600
      vertex 1600 2200 600
      vertex 1700 0 600
    endloop
  endfacet
  facet normal 0 0 1
    outer loop
      vertex 1700 2300 600
      vertex 100 2200 600
      vertex 1600 2200 600
    endloop
  endfacet
  facet normal 0 0 1
    outer loop
      vertex 100 2200 600
      vertex 0 2300 600
      vertex 100 100 600
    endloop
  endfacet
  facet normal -0 0 1
    outer loop
      vertex 0 2300 600
      vertex 100 2200 600
      vertex 1700 2300 600
    endloop
  endfacet
  facet normal -0 0 1
    outer loop
      vertex 1600 100 600
      vertex 1700 0 600
      vertex 1600 2200 600
    endloop
  endfacet
  facet normal -0 0 1
    outer loop
      vertex 100 100 600
      vertex 1700 0 600
      vertex 1600 100 600
    endloop
  endfacet
  facet normal 0 0 1
    outer loop
      vertex 100 100 600
      vertex 0 0 600
      vertex 1700 0 600
    endloop
  endfacet
  facet normal 0 0 1
    outer loop
      vertex 0 0 600
      vertex 100 100 600
      vertex 0 2300 600
    endloop
  endfacet
  facet normal 1 -0 0
    outer loop
      vertex 100 100 600
      vertex 100 2200 100
      vertex 100 2200 600
    endloop
  endfacet
  facet normal 1 0 0
    outer loop
      vertex 100 2200 100
      vertex 100 100 600
      vertex 100 100 100
    endloop
  endfacet
  facet normal -1 0 0
    outer loop
      vertex 1600 100 100
      vertex 1600 2200 600
      vertex 1600 2200 100
    endloop
  endfacet
  facet normal -1 -0 0
    outer loop
      vertex 1600 2200 600
      vertex 1600 100 100
      vertex 1600 100 600
    endloop
  endfacet
  facet normal 0 -1 0
    outer loop
      vertex 100 2200 100
      vertex 1600 2200 600
      vertex 100 2200 600
    endloop
  endfacet
  facet normal 0 -1 -0
    outer loop
      vertex 1600 2200 600
      vertex 100 2200 100
      vertex 1600 2200 100
    endloop
  endfacet
  facet normal 0 1 0
    outer loop
      vertex 1600 100 600
      vertex 855.749 100 554.699
      vertex 100 100 600
    endloop
  endfacet
  facet normal 0 1 0
    outer loop
      vertex 1600 100 600
      vertex 866.996 100 552.308
      vertex 855.749 100 554.699
    endloop
  endfacet
  facet normal 0 1 0
    outer loop
      vertex 1600 100 600
      vertex 877.5 100 547.631
      vertex 866.996 100 552.308
    endloop
  endfacet
  facet normal 0 1 0
    outer loop
      vertex 1600 100 600
      vertex 886.802 100 540.873
      vertex 877.5 100 547.631
    endloop
  endfacet
  facet normal 0 1 0
    outer loop
      vertex 1600 100 600
      vertex 894.496 100 532.328
      vertex 886.802 100 540.873
    endloop
  endfacet
  facet normal 0 1 0
    outer loop
      vertex 1600 100 600
      vertex 900.245 100 522.371
      vertex 894.496 100 532.328
    endloop
  endfacet
  facet normal 0 1 0
    outer loop
      vertex 1600 100 600
      vertex 903.798 100 511.435
      vertex 900.245 100 522.371
    endloop
  endfacet
  facet normal 0 1 0
    outer loop
      vertex 1600 100 600
      vertex 905 100 500
      vertex 903.798 100 511.435
    endloop
  endfacet
  facet normal 0 1 0
    outer loop
      vertex 1600 100 600
      vertex 903.798 100 488.565
      vertex 905 100 500
    endloop
  endfacet
  facet normal 0 1 0
    outer loop
      vertex 903.798 100 361.435
      vertex 903.798 100 488.565
      vertex 1600 100 600
    endloop
  endfacet
  facet normal 0 1 0
    outer loop
      vertex 903.798 100 488.565
      vertex 903.798 100 361.435
      vertex 900.245 100 477.629
    endloop
  endfacet
  facet normal -0 1 0
    outer loop
      vertex 900.245 100 372.371
      vertex 900.245 100 477.629
      vertex 903.798 100 361.435
    endloop
  endfacet
  facet normal 0 1 0
    outer loop
      vertex 900.245 100 477.629
      vertex 900.245 100 372.371
      vertex 894.496 100 467.672
    endloop
  endfacet
  facet normal 0 1 0
    outer loop
      vertex 894.496 100 467.672
      vertex 894.496 100 382.328
      vertex 886.802 100 459.127
    endloop
  endfacet
  facet normal -0 1 0
    outer loop
      vertex 886.802 100 390.873
      vertex 886.802 100 459.127
      vertex 894.496 100 382.328
    endloop
  endfacet
  facet normal 0 1 0
    outer loop
      vertex 855.749 100 445.301
      vertex 855.749 100 404.699
      vertex 844.251 100 445.301
    endloop
  endfacet
  facet normal -0 1 0
    outer loop
      vertex 877.5 100 397.631
      vertex 877.5 100 452.369
      vertex 886.802 100 390.873
    endloop
  endfacet
  facet normal 0 1 0
    outer loop
      vertex 855.749 100 445.301
      vertex 866.996 100 402.308
      vertex 855.749 100 404.699
    endloop
  endfacet
  facet normal 0 1 0
    outer loop
      vertex 866.996 100 447.692
      vertex 866.996 100 402.308
      vertex 855.749 100 445.301
    endloop
  endfacet
  facet normal -0 1 0
    outer loop
      vertex 866.996 100 402.308
      vertex 866.996 100 447.692
      vertex 877.5 100 397.631
    endloop
  endfacet
  facet normal 0 1 0
    outer loop
      vertex 877.5 100 452.369
      vertex 877.5 100 397.631
      vertex 866.996 100 447.692
    endloop
  endfacet
  facet normal 0 1 0
    outer loop
      vertex 886.802 100 459.127
      vertex 886.802 100 390.873
      vertex 877.5 100 452.369
    endloop
  endfacet
  facet normal -0 1 0
    outer loop
      vertex 894.496 100 382.328
      vertex 894.496 100 467.672
      vertex 900.245 100 372.371
    endloop
  endfacet
  facet normal 0 1 0
    outer loop
      vertex 1600 100 600
      vertex 905 100 350
      vertex 903.798 100 361.435
    endloop
  endfacet
  facet normal 0 1 -0
    outer loop
      vertex 1600 100 100
      vertex 905 100 350
      vertex 1600 100 600
    endloop
  endfacet
  facet normal 0 1 0
    outer loop
      vertex 905 100 350
      vertex 1600 100 100
      vertex 903.798 100 338.565
    endloop
  endfacet
  facet normal -0 1 0
    outer loop
      vertex 903.798 100 211.435
      vertex 903.798 100 338.565
      vertex 1600 100 100
    endloop
  endfacet
  facet normal 0 1 0
    outer loop
      vertex 903.798 100 338.565
      vertex 903.798 100 211.435
      vertex 900.245 100 327.629
    endloop
  endfacet
  facet normal -0 1 0
    outer loop
      vertex 900.245 100 222.371
      vertex 900.245 100 327.629
      vertex 903.798 100 211.435
    endloop
  endfacet
  facet normal 0 1 0
    outer loop
      vertex 894.496 100 317.672
      vertex 894.496 100 232.328
      vertex 886.802 100 309.127
    endloop
  endfacet
  facet normal 0 1 0
    outer loop
      vertex 855.749 100 295.301
      vertex 855.749 100 254.699
      vertex 844.251 100 295.301
    endloop
  endfacet
  facet normal 0 1 0
    outer loop
      vertex 866.996 100 297.692
      vertex 855.749 100 254.699
      vertex 855.749 100 295.301
    endloop
  endfacet
  facet normal -0 1 0
    outer loop
      vertex 886.802 100 240.873
      vertex 886.802 100 309.127
      vertex 894.496 100 232.328
    endloop
  endfacet
  facet normal 0 1 0
    outer loop
      vertex 866.996 100 297.692
      vertex 866.996 100 252.308
      vertex 855.749 100 254.699
    endloop
  endfacet
  facet normal 0 1 0
    outer loop
      vertex 866.996 100 297.692
      vertex 877.5 100 247.631
      vertex 866.996 100 252.308
    endloop
  endfacet
  facet normal 0 1 0
    outer loop
      vertex 877.5 100 302.369
      vertex 877.5 100 247.631
      vertex 866.996 100 297.692
    endloop
  endfacet
  facet normal -0 1 0
    outer loop
      vertex 877.5 100 247.631
      vertex 877.5 100 302.369
      vertex 886.802 100 240.873
    endloop
  endfacet
  facet normal 0 1 0
    outer loop
      vertex 886.802 100 309.127
      vertex 886.802 100 240.873
      vertex 877.5 100 302.369
    endloop
  endfacet
  facet normal 0 1 0
    outer loop
      vertex 900.245 100 327.629
      vertex 900.245 100 222.371
      vertex 894.496 100 317.672
    endloop
  endfacet
  facet normal -0 1 0
    outer loop
      vertex 894.496 100 232.328
      vertex 894.496 100 317.672
      vertex 900.245 100 222.371
    endloop
  endfacet
  facet normal 0 1 0
    outer loop
      vertex 903.798 100 211.435
      vertex 1600 100 100
      vertex 905 100 200
    endloop
  endfacet
  facet normal 0 1 0
    outer loop
      vertex 905 100 200
      vertex 1600 100 100
      vertex 903.798 100 188.565
    endloop
  endfacet
  facet normal 0 1 0
    outer loop
      vertex 903.798 100 188.565
      vertex 1600 100 100
      vertex 900.245 100 177.629
    endloop
  endfacet
  facet normal 0 1 0
    outer loop
      vertex 900.245 100 177.629
      vertex 1600 100 100
      vertex 894.496 100 167.672
    endloop
  endfacet
  facet normal 0 1 0
    outer loop
      vertex 894.496 100 167.672
      vertex 1600 100 100
      vertex 886.802 100 159.127
    endloop
  endfacet
  facet normal 0 1 0
    outer loop
      vertex 855.749 100 145.301
      vertex 1600 100 100
      vertex 844.251 100 145.301
    endloop
  endfacet
  facet normal 0 1 0
    outer loop
      vertex 866.996 100 147.692
      vertex 1600 100 100
      vertex 855.749 100 145.301
    endloop
  endfacet
  facet normal 0 1 0
    outer loop
      vertex 877.5 100 152.369
      vertex 1600 100 100
      vertex 866.996 100 147.692
    endloop
  endfacet
  facet normal 0 1 0
    outer loop
      vertex 886.802 100 159.127
      vertex 1600 100 100
      vertex 877.5 100 152.369
    endloop
  endfacet
  facet normal 0 1 -0
    outer loop
      vertex 844.251 100 554.699
      vertex 100 100 600
      vertex 855.749 100 554.699
    endloop
  endfacet
  facet normal 0 1 -0
    outer loop
      vertex 833.004 100 552.308
      vertex 100 100 600
      vertex 844.251 100 554.699
    endloop
  endfacet
  facet normal 0 1 -0
    outer loop
      vertex 822.5 100 547.631
      vertex 100 100 600
      vertex 833.004 100 552.308
    endloop
  endfacet
  facet normal 0 1 -0
    outer loop
      vertex 813.198 100 540.873
      vertex 100 100 600
      vertex 822.5 100 547.631
    endloop
  endfacet
  facet normal 0 1 -0
    outer loop
      vertex 805.504 100 532.328
      vertex 100 100 600
      vertex 813.198 100 540.873
    endloop
  endfacet
  facet normal 0 1 -0
    outer loop
      vertex 799.755 100 522.371
      vertex 100 100 600
      vertex 805.504 100 532.328
    endloop
  endfacet
  facet normal 0 1 -0
    outer loop
      vertex 796.202 100 511.435
      vertex 100 100 600
      vertex 799.755 100 522.371
    endloop
  endfacet
  facet normal 0 1 -0
    outer loop
      vertex 795 100 500
      vertex 100 100 600
      vertex 796.202 100 511.435
    endloop
  endfacet
  facet normal 0 1 0
    outer loop
      vertex 796.202 100 488.565
      vertex 100 100 600
      vertex 795 100 500
    endloop
  endfacet
  facet normal 0 1 0
    outer loop
      vertex 796.202 100 361.435
      vertex 796.202 100 488.565
      vertex 799.755 100 477.629
    endloop
  endfacet
  facet normal 0 1 0
    outer loop
      vertex 799.755 100 372.371
      vertex 799.755 100 477.629
      vertex 805.504 100 467.672
    endloop
  endfacet
  facet normal 0 1 0
    outer loop
      vertex 805.504 100 382.328
      vertex 805.504 100 467.672
      vertex 813.198 100 459.127
    endloop
  endfacet
  facet normal 0 1 0
    outer loop
      vertex 813.198 100 390.873
      vertex 813.198 100 459.127
      vertex 822.5 100 452.369
    endloop
  endfacet
  facet normal 0 1 0
    outer loop
      vertex 822.5 100 397.631
      vertex 822.5 100 452.369
      vertex 833.004 100 447.692
    endloop
  endfacet
  facet normal 0 1 0
    outer loop
      vertex 833.004 100 402.308
      vertex 833.004 100 447.692
      vertex 844.251 100 445.301
    endloop
  endfacet
  facet normal 0 1 0
    outer loop
      vertex 844.251 100 404.699
      vertex 844.251 100 445.301
      vertex 855.749 100 404.699
    endloop
  endfacet
  facet normal 0 1 0
    outer loop
      vertex 833.004 100 402.308
      vertex 844.251 100 445.301
      vertex 844.251 100 404.699
    endloop
  endfacet
  facet normal 0 1 0
    outer loop
      vertex 833.004 100 447.692
      vertex 833.004 100 402.308
      vertex 822.5 100 397.631
    endloop
  endfacet
  facet normal 0 1 0
    outer loop
      vertex 822.5 100 452.369
      vertex 822.5 100 397.631
      vertex 813.198 100 390.873
    endloop
  endfacet
  facet normal 0 1 0
    outer loop
      vertex 813.198 100 459.127
      vertex 813.198 100 390.873
      vertex 805.504 100 382.328
    endloop
  endfacet
  facet normal 0 1 0
    outer loop
      vertex 805.504 100 467.672
      vertex 805.504 100 382.328
      vertex 799.755 100 372.371
    endloop
  endfacet
  facet normal 0 1 0
    outer loop
      vertex 799.755 100 477.629
      vertex 799.755 100 372.371
      vertex 796.202 100 361.435
    endloop
  endfacet
  facet normal 0 1 0
    outer loop
      vertex 796.202 100 488.565
      vertex 796.202 100 361.435
      vertex 100 100 600
    endloop
  endfacet
  facet normal 0 1 -0
    outer loop
      vertex 795 100 350
      vertex 100 100 600
      vertex 796.202 100 361.435
    endloop
  endfacet
  facet normal 0 1 0
    outer loop
      vertex 100 100 100
      vertex 795 100 350
      vertex 796.202 100 338.565
    endloop
  endfacet
  facet normal 0 1 0
    outer loop
      vertex 796.202 100 211.435
      vertex 796.202 100 338.565
      vertex 799.755 100 327.629
    endloop
  endfacet
  facet normal 0 1 0
    outer loop
      vertex 799.755 100 222.371
      vertex 799.755 100 327.629
      vertex 805.504 100 317.672
    endloop
  endfacet
  facet normal 0 1 0
    outer loop
      vertex 805.504 100 232.328
      vertex 805.504 100 317.672
      vertex 813.198 100 309.127
    endloop
  endfacet
  facet normal 0 1 0
    outer loop
      vertex 813.198 100 240.873
      vertex 813.198 100 309.127
      vertex 822.5 100 302.369
    endloop
  endfacet
  facet normal 0 1 0
    outer loop
      vertex 822.5 100 247.631
      vertex 822.5 100 302.369
      vertex 833.004 100 297.692
    endloop
  endfacet
  facet normal 0 1 0
    outer loop
      vertex 844.251 100 254.699
      vertex 844.251 100 295.301
      vertex 855.749 100 254.699
    endloop
  endfacet
  facet normal 0 1 0
    outer loop
      vertex 844.251 100 295.301
      vertex 844.251 100 254.699
      vertex 833.004 100 297.692
    endloop
  endfacet
  facet normal 0 1 0
    outer loop
      vertex 833.004 100 252.308
      vertex 833.004 100 297.692
      vertex 844.251 100 254.699
    endloop
  endfacet
  facet normal 0 1 0
    outer loop
      vertex 822.5 100 247.631
      vertex 833.004 100 297.692
      vertex 833.004 100 252.308
    endloop
  endfacet
  facet normal 0 1 0
    outer loop
      vertex 822.5 100 302.369
      vertex 822.5 100 247.631
      vertex 813.198 100 240.873
    endloop
  endfacet
  facet normal 0 1 0
    outer loop
      vertex 813.198 100 309.127
      vertex 813.198 100 240.873
      vertex 805.504 100 232.328
    endloop
  endfacet
  facet normal 0 1 0
    outer loop
      vertex 805.504 100 317.672
      vertex 805.504 100 232.328
      vertex 799.755 100 222.371
    endloop
  endfacet
  facet normal 0 1 0
    outer loop
      vertex 799.755 100 327.629
      vertex 799.755 100 222.371
      vertex 796.202 100 211.435
    endloop
  endfacet
  facet normal 0 1 0
    outer loop
      vertex 796.202 100 338.565
      vertex 796.202 100 211.435
      vertex 100 100 100
    endloop
  endfacet
  facet normal 0 1 0
    outer loop
      vertex 100 100 100
      vertex 796.202 100 211.435
      vertex 795 100 200
    endloop
  endfacet
  facet normal 0 1 0
    outer loop
      vertex 100 100 100
      vertex 795 100 200
      vertex 796.202 100 188.565
    endloop
  endfacet
  facet normal 0 1 0
    outer loop
      vertex 100 100 100
      vertex 796.202 100 188.565
      vertex 799.755 100 177.629
    endloop
  endfacet
  facet normal 0 1 0
    outer loop
      vertex 100 100 100
      vertex 799.755 100 177.629
      vertex 805.504 100 167.672
    endloop
  endfacet
  facet normal 0 1 0
    outer loop
      vertex 100 100 100
      vertex 805.504 100 167.672
      vertex 813.198 100 159.127
    endloop
  endfacet
  facet normal 0 1 0
    outer loop
      vertex 100 100 100
      vertex 813.198 100 159.127
      vertex 822.5 100 152.369
    endloop
  endfacet
  facet normal 0 1 0
    outer loop
      vertex 795 100 350
      vertex 100 100 100
      vertex 100 100 600
    endloop
  endfacet
  facet normal 0 1 0
    outer loop
      vertex 833.004 100 147.692
      vertex 100 100 100
      vertex 822.5 100 152.369
    endloop
  endfacet
  facet normal 0 1 0
    outer loop
      vertex 844.251 100 145.301
      vertex 100 100 100
      vertex 833.004 100 147.692
    endloop
  endfacet
  facet normal 0 1 0
    outer loop
      vertex 100 100 100
      vertex 844.251 100 145.301
      vertex 1600 100 100
    endloop
  endfacet
  facet normal -0.994522 0 -0.10453
    outer loop
      vertex 905 0 500
      vertex 903.798 100 511.435
      vertex 905 100 500
    endloop
  endfacet
  facet normal -0.994522 -0 -0.10453
    outer loop
      vertex 903.798 100 511.435
      vertex 905 0 500
      vertex 903.798 0 511.435
    endloop
  endfacet
  facet normal -0.866024 0 -0.500002
    outer loop
      vertex 900.245 0 522.371
      vertex 894.496 100 532.328
      vertex 900.245 100 522.371
    endloop
  endfacet
  facet normal -0.866024 -0 -0.500002
    outer loop
      vertex 894.496 100 532.328
      vertex 900.245 0 522.371
      vertex 894.496 0 532.328
    endloop
  endfacet
  facet normal 0.587786 0 0.809016
    outer loop
      vertex 813.198 100 459.127
      vertex 822.5 0 452.369
      vertex 822.5 100 452.369
    endloop
  endfacet
  facet normal 0.587786 0 0.809016
    outer loop
      vertex 822.5 0 452.369
      vertex 813.198 100 459.127
      vertex 813.198 0 459.127
    endloop
  endfacet
  facet normal -0.207915 0 -0.978147
    outer loop
      vertex 855.749 0 554.699
      vertex 866.996 100 552.308
      vertex 866.996 0 552.308
    endloop
  endfacet
  facet normal -0.207915 0 -0.978147
    outer loop
      vertex 866.996 100 552.308
      vertex 855.749 0 554.699
      vertex 855.749 100 554.699
    endloop
  endfacet
  facet normal 0.587785 0 -0.809017
    outer loop
      vertex 813.198 0 540.873
      vertex 822.5 100 547.631
      vertex 822.5 0 547.631
    endloop
  endfacet
  facet normal 0.587785 0 -0.809017
    outer loop
      vertex 822.5 100 547.631
      vertex 813.198 0 540.873
      vertex 813.198 100 540.873
    endloop
  endfacet
  facet normal -0.406735 0 0.913546
    outer loop
      vertex 866.996 100 447.692
      vertex 877.5 0 452.369
      vertex 877.5 100 452.369
    endloop
  endfacet
  facet normal -0.406735 0 0.913546
    outer loop
      vertex 877.5 0 452.369
      vertex 866.996 100 447.692
      vertex 866.996 0 447.692
    endloop
  endfacet
  facet normal -0.587785 0 -0.809017
    outer loop
      vertex 877.5 0 547.631
      vertex 886.802 100 540.873
      vertex 886.802 0 540.873
    endloop
  endfacet
  facet normal -0.587785 0 -0.809017
    outer loop
      vertex 886.802 100 540.873
      vertex 877.5 0 547.631
      vertex 877.5 100 547.631
    endloop
  endfacet
  facet normal -0.743147 0 -0.669128
    outer loop
      vertex 894.496 0 532.328
      vertex 886.802 100 540.873
      vertex 894.496 100 532.328
    endloop
  endfacet
  facet normal -0.743147 -0 -0.669128
    outer loop
      vertex 886.802 100 540.873
      vertex 894.496 0 532.328
      vertex 886.802 0 540.873
    endloop
  endfacet
  facet normal 0.207915 0 -0.978147
    outer loop
      vertex 833.004 0 552.308
      vertex 844.251 100 554.699
      vertex 844.251 0 554.699
    endloop
  endfacet
  facet normal 0.207915 0 -0.978147
    outer loop
      vertex 844.251 100 554.699
      vertex 833.004 0 552.308
      vertex 833.004 100 552.308
    endloop
  endfacet
  facet normal 0.994522 -0 0.10453
    outer loop
      vertex 795 0 500
      vertex 796.202 100 488.565
      vertex 795 100 500
    endloop
  endfacet
  facet normal 0.994522 0 0.10453
    outer loop
      vertex 796.202 100 488.565
      vertex 795 0 500
      vertex 796.202 0 488.565
    endloop
  endfacet
  facet normal 0.951057 0 -0.309015
    outer loop
      vertex 799.755 0 522.371
      vertex 796.202 100 511.435
      vertex 799.755 100 522.371
    endloop
  endfacet
  facet normal 0.951057 0 -0.309015
    outer loop
      vertex 796.202 100 511.435
      vertex 799.755 0 522.371
      vertex 796.202 0 511.435
    endloop
  endfacet
  facet normal 0.866024 0 -0.500002
    outer loop
      vertex 805.504 0 532.328
      vertex 799.755 100 522.371
      vertex 805.504 100 532.328
    endloop
  endfacet
  facet normal 0.866024 0 -0.500002
    outer loop
      vertex 799.755 100 522.371
      vertex 805.504 0 532.328
      vertex 799.755 0 522.371
    endloop
  endfacet
  facet normal -0.951057 0 0.309016
    outer loop
      vertex 900.245 0 477.629
      vertex 903.798 100 488.565
      vertex 900.245 100 477.629
    endloop
  endfacet
  facet normal -0.951057 0 0.309016
    outer loop
      vertex 903.798 100 488.565
      vertex 900.245 0 477.629
      vertex 903.798 0 488.565
    endloop
  endfacet
  facet normal 0.951057 -0 0.309016
    outer loop
      vertex 796.202 0 488.565
      vertex 799.755 100 477.629
      vertex 796.202 100 488.565
    endloop
  endfacet
  facet normal 0.951057 0 0.309016
    outer loop
      vertex 799.755 100 477.629
      vertex 796.202 0 488.565
      vertex 799.755 0 477.629
    endloop
  endfacet
  facet normal -0.207912 0 0.978147
    outer loop
      vertex 855.749 100 445.301
      vertex 866.996 0 447.692
      vertex 866.996 100 447.692
    endloop
  endfacet
  facet normal -0.207912 0 0.978147
    outer loop
      vertex 866.996 0 447.692
      vertex 855.749 100 445.301
      vertex 855.749 0 445.301
    endloop
  endfacet
  facet normal -0.994522 0 0.10453
    outer loop
      vertex 903.798 0 488.565
      vertex 905 100 500
      vertex 903.798 100 488.565
    endloop
  endfacet
  facet normal -0.994522 0 0.10453
    outer loop
      vertex 905 100 500
      vertex 903.798 0 488.565
      vertex 905 0 500
    endloop
  endfacet
  facet normal -0.951057 0 -0.309015
    outer loop
      vertex 903.798 0 511.435
      vertex 900.245 100 522.371
      vertex 903.798 100 511.435
    endloop
  endfacet
  facet normal -0.951057 -0 -0.309015
    outer loop
      vertex 900.245 100 522.371
      vertex 903.798 0 511.435
      vertex 900.245 0 522.371
    endloop
  endfacet
  facet normal 0 0 -1
    outer loop
      vertex 844.251 0 554.699
      vertex 855.749 100 554.699
      vertex 855.749 0 554.699
    endloop
  endfacet
  facet normal -0 0 -1
    outer loop
      vertex 855.749 100 554.699
      vertex 844.251 0 554.699
      vertex 844.251 100 554.699
    endloop
  endfacet
  facet normal -0.406735 0 -0.913546
    outer loop
      vertex 866.996 0 552.308
      vertex 877.5 100 547.631
      vertex 877.5 0 547.631
    endloop
  endfacet
  facet normal -0.406735 0 -0.913546
    outer loop
      vertex 877.5 100 547.631
      vertex 866.996 0 552.308
      vertex 866.996 100 552.308
    endloop
  endfacet
  facet normal 0.994522 0 -0.10453
    outer loop
      vertex 796.202 0 511.435
      vertex 795 100 500
      vertex 796.202 100 511.435
    endloop
  endfacet
  facet normal 0.994522 0 -0.10453
    outer loop
      vertex 795 100 500
      vertex 796.202 0 511.435
      vertex 795 0 500
    endloop
  endfacet
  facet normal 0.406735 0 -0.913546
    outer loop
      vertex 822.5 0 547.631
      vertex 833.004 100 552.308
      vertex 833.004 0 552.308
    endloop
  endfacet
  facet normal 0.406735 0 -0.913546
    outer loop
      vertex 833.004 100 552.308
      vertex 822.5 0 547.631
      vertex 822.5 100 547.631
    endloop
  endfacet
  facet normal 0.743147 0 -0.669128
    outer loop
      vertex 813.198 0 540.873
      vertex 805.504 100 532.328
      vertex 813.198 100 540.873
    endloop
  endfacet
  facet normal 0.743147 0 -0.669128
    outer loop
      vertex 805.504 100 532.328
      vertex 813.198 0 540.873
      vertex 805.504 0 532.328
    endloop
  endfacet
  facet normal -0.587786 0 0.809016
    outer loop
      vertex 877.5 100 452.369
      vertex 886.802 0 459.127
      vertex 886.802 100 459.127
    endloop
  endfacet
  facet normal -0.587786 0 0.809016
    outer loop
      vertex 886.802 0 459.127
      vertex 877.5 100 452.369
      vertex 877.5 0 452.369
    endloop
  endfacet
  facet normal -0.743146 0 0.66913
    outer loop
      vertex 886.802 0 459.127
      vertex 894.496 100 467.672
      vertex 886.802 100 459.127
    endloop
  endfacet
  facet normal -0.743146 0 0.66913
    outer loop
      vertex 894.496 100 467.672
      vertex 886.802 0 459.127
      vertex 894.496 0 467.672
    endloop
  endfacet
  facet normal 0.866025 -0 0.500001
    outer loop
      vertex 799.755 0 477.629
      vertex 805.504 100 467.672
      vertex 799.755 100 477.629
    endloop
  endfacet
  facet normal 0.866025 0 0.500001
    outer loop
      vertex 805.504 100 467.672
      vertex 799.755 0 477.629
      vertex 805.504 0 467.672
    endloop
  endfacet
  facet normal 0.743146 -0 0.66913
    outer loop
      vertex 805.504 0 467.672
      vertex 813.198 100 459.127
      vertex 805.504 100 467.672
    endloop
  endfacet
  facet normal 0.743146 0 0.66913
    outer loop
      vertex 813.198 100 459.127
      vertex 805.504 0 467.672
      vertex 813.198 0 459.127
    endloop
  endfacet
  facet normal -0 0 1
    outer loop
      vertex 844.251 100 445.301
      vertex 855.749 0 445.301
      vertex 855.749 100 445.301
    endloop
  endfacet
  facet normal 0 0 1
    outer loop
      vertex 855.749 0 445.301
      vertex 844.251 100 445.301
      vertex 844.251 0 445.301
    endloop
  endfacet
  facet normal -0.866025 0 0.500001
    outer loop
      vertex 894.496 0 467.672
      vertex 900.245 100 477.629
      vertex 894.496 100 467.672
    endloop
  endfacet
  facet normal -0.866025 0 0.500001
    outer loop
      vertex 900.245 100 477.629
      vertex 894.496 0 467.672
      vertex 900.245 0 477.629
    endloop
  endfacet
  facet normal 0.406735 0 0.913546
    outer loop
      vertex 822.5 100 452.369
      vertex 833.004 0 447.692
      vertex 833.004 100 447.692
    endloop
  endfacet
  facet normal 0.406735 0 0.913546
    outer loop
      vertex 833.004 0 447.692
      vertex 822.5 100 452.369
      vertex 822.5 0 452.369
    endloop
  endfacet
  facet normal 0.207912 0 0.978147
    outer loop
      vertex 833.004 100 447.692
      vertex 844.251 0 445.301
      vertex 844.251 100 445.301
    endloop
  endfacet
  facet normal 0.207912 0 0.978147
    outer loop
      vertex 844.251 0 445.301
      vertex 833.004 100 447.692
      vertex 833.004 0 447.692
    endloop
  endfacet
  facet normal -0.994522 0 -0.10453
    outer loop
      vertex 905 0 350
      vertex 903.798 100 361.435
      vertex 905 100 350
    endloop
  endfacet
  facet normal -0.994522 -0 -0.10453
    outer loop
      vertex 903.798 100 361.435
      vertex 905 0 350
      vertex 903.798 0 361.435
    endloop
  endfacet
  facet normal -0.866025 0 -0.500001
    outer loop
      vertex 900.245 0 372.371
      vertex 894.496 100 382.328
      vertex 900.245 100 372.371
    endloop
  endfacet
  facet normal -0.866025 -0 -0.500001
    outer loop
      vertex 894.496 100 382.328
      vertex 900.245 0 372.371
      vertex 894.496 0 382.328
    endloop
  endfacet
  facet normal 0.587786 0 0.809016
    outer loop
      vertex 813.198 100 309.127
      vertex 822.5 0 302.369
      vertex 822.5 100 302.369
    endloop
  endfacet
  facet normal 0.587786 0 0.809016
    outer loop
      vertex 822.5 0 302.369
      vertex 813.198 100 309.127
      vertex 813.198 0 309.127
    endloop
  endfacet
  facet normal 0.587786 0 -0.809016
    outer loop
      vertex 813.198 0 390.873
      vertex 822.5 100 397.631
      vertex 822.5 0 397.631
    endloop
  endfacet
  facet normal 0.587786 0 -0.809016
    outer loop
      vertex 822.5 100 397.631
      vertex 813.198 0 390.873
      vertex 813.198 100 390.873
    endloop
  endfacet
  facet normal -0.406735 0 0.913546
    outer loop
      vertex 866.996 100 297.692
      vertex 877.5 0 302.369
      vertex 877.5 100 302.369
    endloop
  endfacet
  facet normal -0.406735 0 0.913546
    outer loop
      vertex 877.5 0 302.369
      vertex 866.996 100 297.692
      vertex 866.996 0 297.692
    endloop
  endfacet
  facet normal -0.587786 0 -0.809016
    outer loop
      vertex 877.5 0 397.631
      vertex 886.802 100 390.873
      vertex 886.802 0 390.873
    endloop
  endfacet
  facet normal -0.587786 0 -0.809016
    outer loop
      vertex 886.802 100 390.873
      vertex 877.5 0 397.631
      vertex 877.5 100 397.631
    endloop
  endfacet
  facet normal -0.743146 0 -0.66913
    outer loop
      vertex 894.496 0 382.328
      vertex 886.802 100 390.873
      vertex 894.496 100 382.328
    endloop
  endfacet
  facet normal -0.743146 -0 -0.66913
    outer loop
      vertex 886.802 100 390.873
      vertex 894.496 0 382.328
      vertex 886.802 0 390.873
    endloop
  endfacet
  facet normal 0.207912 0 -0.978147
    outer loop
      vertex 833.004 0 402.308
      vertex 844.251 100 404.699
      vertex 844.251 0 404.699
    endloop
  endfacet
  facet normal 0.207912 0 -0.978147
    outer loop
      vertex 844.251 100 404.699
      vertex 833.004 0 402.308
      vertex 833.004 100 402.308
    endloop
  endfacet
  facet normal 0.994522 -0 0.10453
    outer loop
      vertex 795 0 350
      vertex 796.202 100 338.565
      vertex 795 100 350
    endloop
  endfacet
  facet normal 0.994522 0 0.10453
    outer loop
      vertex 796.202 100 338.565
      vertex 795 0 350
      vertex 796.202 0 338.565
    endloop
  endfacet
  facet normal 0.951057 0 -0.309016
    outer loop
      vertex 799.755 0 372.371
      vertex 796.202 100 361.435
      vertex 799.755 100 372.371
    endloop
  endfacet
  facet normal 0.951057 0 -0.309016
    outer loop
      vertex 796.202 100 361.435
      vertex 799.755 0 372.371
      vertex 796.202 0 361.435
    endloop
  endfacet
  facet normal 0.866025 0 -0.500001
    outer loop
      vertex 805.504 0 382.328
      vertex 799.755 100 372.371
      vertex 805.504 100 382.328
    endloop
  endfacet
  facet normal 0.866025 0 -0.500001
    outer loop
      vertex 799.755 100 372.371
      vertex 805.504 0 382.328
      vertex 799.755 0 372.371
    endloop
  endfacet
  facet normal 0.951057 -0 0.309016
    outer loop
      vertex 796.202 0 338.565
      vertex 799.755 100 327.629
      vertex 796.202 100 338.565
    endloop
  endfacet
  facet normal 0.951057 0 0.309016
    outer loop
      vertex 799.755 100 327.629
      vertex 796.202 0 338.565
      vertex 799.755 0 327.629
    endloop
  endfacet
  facet normal -0.207912 0 0.978147
    outer loop
      vertex 855.749 100 295.301
      vertex 866.996 0 297.692
      vertex 866.996 100 297.692
    endloop
  endfacet
  facet normal -0.207912 0 0.978147
    outer loop
      vertex 866.996 0 297.692
      vertex 855.749 100 295.301
      vertex 855.749 0 295.301
    endloop
  endfacet
  facet normal -0.994522 0 0.10453
    outer loop
      vertex 903.798 0 338.565
      vertex 905 100 350
      vertex 903.798 100 338.565
    endloop
  endfacet
  facet normal -0.994522 0 0.10453
    outer loop
      vertex 905 100 350
      vertex 903.798 0 338.565
      vertex 905 0 350
    endloop
  endfacet
  facet normal -0.951057 0 -0.309016
    outer loop
      vertex 903.798 0 361.435
      vertex 900.245 100 372.371
      vertex 903.798 100 361.435
    endloop
  endfacet
  facet normal -0.951057 -0 -0.309016
    outer loop
      vertex 900.245 100 372.371
      vertex 903.798 0 361.435
      vertex 900.245 0 372.371
    endloop
  endfacet
  facet normal 0 0 -1
    outer loop
      vertex 844.251 0 404.699
      vertex 855.749 100 404.699
      vertex 855.749 0 404.699
    endloop
  endfacet
  facet normal -0 0 -1
    outer loop
      vertex 855.749 100 404.699
      vertex 844.251 0 404.699
      vertex 844.251 100 404.699
    endloop
  endfacet
  facet normal -0.406735 0 -0.913546
    outer loop
      vertex 866.996 0 402.308
      vertex 877.5 100 397.631
      vertex 877.5 0 397.631
    endloop
  endfacet
  facet normal -0.406735 0 -0.913546
    outer loop
      vertex 877.5 100 397.631
      vertex 866.996 0 402.308
      vertex 866.996 100 402.308
    endloop
  endfacet
  facet normal -0.207912 0 -0.978147
    outer loop
      vertex 855.749 0 404.699
      vertex 866.996 100 402.308
      vertex 866.996 0 402.308
    endloop
  endfacet
  facet normal -0.207912 0 -0.978147
    outer loop
      vertex 866.996 100 402.308
      vertex 855.749 0 404.699
      vertex 855.749 100 404.699
    endloop
  endfacet
  facet normal 0.994522 0 -0.10453
    outer loop
      vertex 796.202 0 361.435
      vertex 795 100 350
      vertex 796.202 100 361.435
    endloop
  endfacet
  facet normal 0.994522 0 -0.10453
    outer loop
      vertex 795 100 350
      vertex 796.202 0 361.435
      vertex 795 0 350
    endloop
  endfacet
  facet normal 0.406735 0 -0.913546
    outer loop
      vertex 822.5 0 397.631
      vertex 833.004 100 402.308
      vertex 833.004 0 402.308
    endloop
  endfacet
  facet normal 0.406735 0 -0.913546
    outer loop
      vertex 833.004 100 402.308
      vertex 822.5 0 397.631
      vertex 822.5 100 397.631
    endloop
  endfacet
  facet normal 0.743146 0 -0.66913
    outer loop
      vertex 813.198 0 390.873
      vertex 805.504 100 382.328
      vertex 813.198 100 390.873
    endloop
  endfacet
  facet normal 0.743146 0 -0.66913
    outer loop
      vertex 805.504 100 382.328
      vertex 813.198 0 390.873
      vertex 805.504 0 382.328
    endloop
  endfacet
  facet normal -0.587786 0 0.809016
    outer loop
      vertex 877.5 100 302.369
      vertex 886.802 0 309.127
      vertex 886.802 100 309.127
    endloop
  endfacet
  facet normal -0.587786 0 0.809016
    outer loop
      vertex 886.802 0 309.127
      vertex 877.5 100 302.369
      vertex 877.5 0 302.369
    endloop
  endfacet
  facet normal -0.743146 0 0.66913
    outer loop
      vertex 886.802 0 309.127
      vertex 894.496 100 317.672
      vertex 886.802 100 309.127
    endloop
  endfacet
  facet normal -0.743146 0 0.66913
    outer loop
      vertex 894.496 100 317.672
      vertex 886.802 0 309.127
      vertex 894.496 0 317.672
    endloop
  endfacet
  facet normal -0.951057 0 0.309016
    outer loop
      vertex 900.245 0 327.629
      vertex 903.798 100 338.565
      vertex 900.245 100 327.629
    endloop
  endfacet
  facet normal -0.951057 0 0.309016
    outer loop
      vertex 903.798 100 338.565
      vertex 900.245 0 327.629
      vertex 903.798 0 338.565
    endloop
  endfacet
  facet normal 0.866025 -0 0.500001
    outer loop
      vertex 799.755 0 327.629
      vertex 805.504 100 317.672
      vertex 799.755 100 327.629
    endloop
  endfacet
  facet normal 0.866025 0 0.500001
    outer loop
      vertex 805.504 100 317.672
      vertex 799.755 0 327.629
      vertex 805.504 0 317.672
    endloop
  endfacet
  facet normal 0.743146 -0 0.66913
    outer loop
      vertex 805.504 0 317.672
      vertex 813.198 100 309.127
      vertex 805.504 100 317.672
    endloop
  endfacet
  facet normal 0.743146 0 0.66913
    outer loop
      vertex 813.198 100 309.127
      vertex 805.504 0 317.672
      vertex 813.198 0 309.127
    endloop
  endfacet
  facet normal -0.866025 0 0.500001
    outer loop
      vertex 894.496 0 317.672
      vertex 900.245 100 327.629
      vertex 894.496 100 317.672
    endloop
  endfacet
  facet normal -0.866025 0 0.500001
    outer loop
      vertex 900.245 100 327.629
      vertex 894.496 0 317.672
      vertex 900.245 0 327.629
    endloop
  endfacet
  facet normal 0.406735 0 0.913546
    outer loop
      vertex 822.5 100 302.369
      vertex 833.004 0 297.692
      vertex 833.004 100 297.692
    endloop
  endfacet
  facet normal 0.406735 0 0.913546
    outer loop
      vertex 833.004 0 297.692
      vertex 822.5 100 302.369
      vertex 822.5 0 302.369
    endloop
  endfacet
  facet normal 0.207912 0 0.978147
    outer loop
      vertex 833.004 100 297.692
      vertex 844.251 0 295.301
      vertex 844.251 100 295.301
    endloop
  endfacet
  facet normal 0.207912 0 0.978147
    outer loop
      vertex 844.251 0 295.301
      vertex 833.004 100 297.692
      vertex 833.004 0 297.692
    endloop
  endfacet
  facet normal -0 0 1
    outer loop
      vertex 844.251 100 295.301
      vertex 855.749 0 295.301
      vertex 855.749 100 295.301
    endloop
  endfacet
  facet normal 0 0 1
    outer loop
      vertex 855.749 0 295.301
      vertex 844.251 100 295.301
      vertex 844.251 0 295.301
    endloop
  endfacet
  facet normal -0.994522 0 -0.10453
    outer loop
      vertex 905 0 200
      vertex 903.798 100 211.435
      vertex 905 100 200
    endloop
  endfacet
  facet normal -0.994522 -0 -0.10453
    outer loop
      vertex 903.798 100 211.435
      vertex 905 0 200
      vertex 903.798 0 211.435
    endloop
  endfacet
  facet normal -0.866025 0 -0.500001
    outer loop
      vertex 900.245 0 222.371
      vertex 894.496 100 232.328
      vertex 900.245 100 222.371
    endloop
  endfacet
  facet normal -0.866025 -0 -0.500001
    outer loop
      vertex 894.496 100 232.328
      vertex 900.245 0 222.371
      vertex 894.496 0 232.328
    endloop
  endfacet
  facet normal 0.587785 0 0.809017
    outer loop
      vertex 813.198 100 159.127
      vertex 822.5 0 152.369
      vertex 822.5 100 152.369
    endloop
  endfacet
  facet normal 0.587785 0 0.809017
    outer loop
      vertex 822.5 0 152.369
      vertex 813.198 100 159.127
      vertex 813.198 0 159.127
    endloop
  endfacet
  facet normal -0.207912 0 -0.978147
    outer loop
      vertex 855.749 0 254.699
      vertex 866.996 100 252.308
      vertex 866.996 0 252.308
    endloop
  endfacet
  facet normal -0.207912 0 -0.978147
    outer loop
      vertex 866.996 100 252.308
      vertex 855.749 0 254.699
      vertex 855.749 100 254.699
    endloop
  endfacet
  facet normal 0.587785 0 -0.809017
    outer loop
      vertex 813.198 0 240.873
      vertex 822.5 100 247.631
      vertex 822.5 0 247.631
    endloop
  endfacet
  facet normal 0.587785 0 -0.809017
    outer loop
      vertex 822.5 100 247.631
      vertex 813.198 0 240.873
      vertex 813.198 100 240.873
    endloop
  endfacet
  facet normal -0.406736 0 0.913546
    outer loop
      vertex 866.996 100 147.692
      vertex 877.5 0 152.369
      vertex 877.5 100 152.369
    endloop
  endfacet
  facet normal -0.406736 0 0.913546
    outer loop
      vertex 877.5 0 152.369
      vertex 866.996 100 147.692
      vertex 866.996 0 147.692
    endloop
  endfacet
  facet normal -0.587785 0 -0.809017
    outer loop
      vertex 877.5 0 247.631
      vertex 886.802 100 240.873
      vertex 886.802 0 240.873
    endloop
  endfacet
  facet normal -0.587785 0 -0.809017
    outer loop
      vertex 886.802 100 240.873
      vertex 877.5 0 247.631
      vertex 877.5 100 247.631
    endloop
  endfacet
  facet normal -0.743146 0 -0.669129
    outer loop
      vertex 894.496 0 232.328
      vertex 886.802 100 240.873
      vertex 894.496 100 232.328
    endloop
  endfacet
  facet normal -0.743146 -0 -0.669129
    outer loop
      vertex 886.802 100 240.873
      vertex 894.496 0 232.328
      vertex 886.802 0 240.873
    endloop
  endfacet
  facet normal 0.207912 0 -0.978147
    outer loop
      vertex 833.004 0 252.308
      vertex 844.251 100 254.699
      vertex 844.251 0 254.699
    endloop
  endfacet
  facet normal 0.207912 0 -0.978147
    outer loop
      vertex 844.251 100 254.699
      vertex 833.004 0 252.308
      vertex 833.004 100 252.308
    endloop
  endfacet
  facet normal 0.994522 -0 0.10453
    outer loop
      vertex 795 0 200
      vertex 796.202 100 188.565
      vertex 795 100 200
    endloop
  endfacet
  facet normal 0.994522 0 0.10453
    outer loop
      vertex 796.202 100 188.565
      vertex 795 0 200
      vertex 796.202 0 188.565
    endloop
  endfacet
  facet normal 0.951057 0 -0.309016
    outer loop
      vertex 799.755 0 222.371
      vertex 796.202 100 211.435
      vertex 799.755 100 222.371
    endloop
  endfacet
  facet normal 0.951057 0 -0.309016
    outer loop
      vertex 796.202 100 211.435
      vertex 799.755 0 222.371
      vertex 796.202 0 211.435
    endloop
  endfacet
  facet normal 0.951057 -0 0.309016
    outer loop
      vertex 796.202 0 188.565
      vertex 799.755 100 177.629
      vertex 796.202 100 188.565
    endloop
  endfacet
  facet normal 0.951057 0 0.309016
    outer loop
      vertex 799.755 100 177.629
      vertex 796.202 0 188.565
      vertex 799.755 0 177.629
    endloop
  endfacet
  facet normal -0.207912 0 0.978147
    outer loop
      vertex 855.749 100 145.301
      vertex 866.996 0 147.692
      vertex 866.996 100 147.692
    endloop
  endfacet
  facet normal -0.207912 0 0.978147
    outer loop
      vertex 866.996 0 147.692
      vertex 855.749 100 145.301
      vertex 855.749 0 145.301
    endloop
  endfacet
  facet normal -0.994522 0 0.10453
    outer loop
      vertex 903.798 0 188.565
      vertex 905 100 200
      vertex 903.798 100 188.565
    endloop
  endfacet
  facet normal -0.994522 0 0.10453
    outer loop
      vertex 905 100 200
      vertex 903.798 0 188.565
      vertex 905 0 200
    endloop
  endfacet
  facet normal -0.951057 0 -0.309016
    outer loop
      vertex 903.798 0 211.435
      vertex 900.245 100 222.371
      vertex 903.798 100 211.435
    endloop
  endfacet
  facet normal -0.951057 -0 -0.309016
    outer loop
      vertex 900.245 100 222.371
      vertex 903.798 0 211.435
      vertex 900.245 0 222.371
    endloop
  endfacet
  facet normal 0 0 -1
    outer loop
      vertex 844.251 0 254.699
      vertex 855.749 100 254.699
      vertex 855.749 0 254.699
    endloop
  endfacet
  facet normal -0 0 -1
    outer loop
      vertex 855.749 100 254.699
      vertex 844.251 0 254.699
      vertex 844.251 100 254.699
    endloop
  endfacet
  facet normal -0.406736 0 -0.913546
    outer loop
      vertex 866.996 0 252.308
      vertex 877.5 100 247.631
      vertex 877.5 0 247.631
    endloop
  endfacet
  facet normal -0.406736 0 -0.913546
    outer loop
      vertex 877.5 100 247.631
      vertex 866.996 0 252.308
      vertex 866.996 100 252.308
    endloop
  endfacet
  facet normal 0.994522 0 -0.10453
    outer loop
      vertex 796.202 0 211.435
      vertex 795 100 200
      vertex 796.202 100 211.435
    endloop
  endfacet
  facet normal 0.994522 0 -0.10453
    outer loop
      vertex 795 100 200
      vertex 796.202 0 211.435
      vertex 795 0 200
    endloop
  endfacet
  facet normal 0.406736 0 -0.913546
    outer loop
      vertex 822.5 0 247.631
      vertex 833.004 100 252.308
      vertex 833.004 0 252.308
    endloop
  endfacet
  facet normal 0.406736 0 -0.913546
    outer loop
      vertex 833.004 100 252.308
      vertex 822.5 0 247.631
      vertex 822.5 100 247.631
    endloop
  endfacet
  facet normal 0.743146 0 -0.669129
    outer loop
      vertex 813.198 0 240.873
      vertex 805.504 100 232.328
      vertex 813.198 100 240.873
    endloop
  endfacet
  facet normal 0.743146 0 -0.669129
    outer loop
      vertex 805.504 100 232.328
      vertex 813.198 0 240.873
      vertex 805.504 0 232.328
    endloop
  endfacet
  facet normal 0.866025 0 -0.500001
    outer loop
      vertex 805.504 0 232.328
      vertex 799.755 100 222.371
      vertex 805.504 100 232.328
    endloop
  endfacet
  facet normal 0.866025 0 -0.500001
    outer loop
      vertex 799.755 100 222.371
      vertex 805.504 0 232.328
      vertex 799.755 0 222.371
    endloop
  endfacet
  facet normal -0.587785 0 0.809017
    outer loop
      vertex 877.5 100 152.369
      vertex 886.802 0 159.127
      vertex 886.802 100 159.127
    endloop
  endfacet
  facet normal -0.587785 0 0.809017
    outer loop
      vertex 886.802 0 159.127
      vertex 877.5 100 152.369
      vertex 877.5 0 152.369
    endloop
  endfacet
  facet normal -0.743146 0 0.669129
    outer loop
      vertex 886.802 0 159.127
      vertex 894.496 100 167.672
      vertex 886.802 100 159.127
    endloop
  endfacet
  facet normal -0.743146 0 0.669129
    outer loop
      vertex 894.496 100 167.672
      vertex 886.802 0 159.127
      vertex 894.496 0 167.672
    endloop
  endfacet
  facet normal -0.951057 0 0.309016
    outer loop
      vertex 900.245 0 177.629
      vertex 903.798 100 188.565
      vertex 900.245 100 177.629
    endloop
  endfacet
  facet normal -0.951057 0 0.309016
    outer loop
      vertex 903.798 100 188.565
      vertex 900.245 0 177.629
      vertex 903.798 0 188.565
    endloop
  endfacet
  facet normal 0.866025 -0 0.500001
    outer loop
      vertex 799.755 0 177.629
      vertex 805.504 100 167.672
      vertex 799.755 100 177.629
    endloop
  endfacet
  facet normal 0.866025 0 0.500001
    outer loop
      vertex 805.504 100 167.672
      vertex 799.755 0 177.629
      vertex 805.504 0 167.672
    endloop
  endfacet
  facet normal 0.743146 -0 0.669129
    outer loop
      vertex 805.504 0 167.672
      vertex 813.198 100 159.127
      vertex 805.504 100 167.672
    endloop
  endfacet
  facet normal 0.743146 0 0.669129
    outer loop
      vertex 813.198 100 159.127
      vertex 805.504 0 167.672
      vertex 813.198 0 159.127
    endloop
  endfacet
  facet normal -0.866025 0 0.500001
    outer loop
      vertex 894.496 0 167.672
      vertex 900.245 100 177.629
      vertex 894.496 100 167.672
    endloop
  endfacet
  facet normal -0.866025 0 0.500001
    outer loop
      vertex 900.245 100 177.629
      vertex 894.496 0 167.672
      vertex 900.245 0 177.629
    endloop
  endfacet
  facet normal 0.406736 0 0.913546
    outer loop
      vertex 822.5 100 152.369
      vertex 833.004 0 147.692
      vertex 833.004 100 147.692
    endloop
  endfacet
  facet normal 0.406736 0 0.913546
    outer loop
      vertex 833.004 0 147.692
      vertex 822.5 100 152.369
      vertex 822.5 0 152.369
    endloop
  endfacet
  facet normal 0.207912 0 0.978147
    outer loop
      vertex 833.004 100 147.692
      vertex 844.251 0 145.301
      vertex 844.251 100 145.301
    endloop
  endfacet
  facet normal 0.207912 0 0.978147
    outer loop
      vertex 844.251 0 145.301
      vertex 833.004 100 147.692
      vertex 833.004 0 147.692
    endloop
  endfacet
  facet normal -0 0 1
    outer loop
      vertex 844.251 100 145.301
      vertex 855.749 0 145.301
      vertex 855.749 100 145.301
    endloop
  endfacet
  facet normal 0 0 1
    outer loop
      vertex 855.749 0 145.301
      vertex 844.251 100 145.301
      vertex 844.251 0 145.301
    endloop
  endfacet
endsolid OpenSCAD_Model
